<?xml version="1.0" encoding="utf-8"?><svg viewBox="0 0 1600 1060" xmlns="http://www.w3.org/2000/svg" xmlns:xlink="http://www.w3.org/1999/xlink"><style>:root>svg{display:none}:root>svg:target{display:block}</style><svg viewBox="0 0 28 32" id="amazon" xmlns="http://www.w3.org/2000/svg"><path fill="currentColor" d="M16.075 10.169c-3.044.113-10.594.969-10.594 7.344 0 6.844 8.644 7.125 11.469 2.7.406.637 2.212 2.344 2.831 2.925l3.55-3.5s-2.019-1.581-2.019-3.3V7.144C21.312 5.563 19.781 2 14.293 2c-5.5 0-8.419 3.438-8.419 6.519l4.594.425c1.019-3.094 3.387-3.094 3.387-3.094 2.544-.006 2.219 1.862 2.219 4.319zm0 5.425c0 5-5.262 4.25-5.262 1.075 0-2.95 3.156-3.544 5.262-3.613v2.537zm8.5 10.219c-.481.625-4.375 4.188-10.906 4.188S2.138 25.532.606 23.688c-.425-.481.063-.706.344-.519 4.581 2.781 11.738 7.363 23.281 1.894.469-.231.831.125.344.75zm2.488.137c-.406.988-1 1.675-1.325 1.938-.344.281-.594.169-.406-.238s1.206-2.906.794-3.438c-.406-.519-2.313-.269-3-.2-.675.063-.813.125-.875-.019-.144-.356 1.356-.969 2.344-1.094.981-.113 2.563-.05 2.875.356.231.319 0 1.694-.406 2.694z"/></svg><svg viewBox="0 0 1600 1060" id="bg-main" xmlns="http://www.w3.org/2000/svg"><defs><path id="bc" d="M215 0h1v1060h-1z"/><path id="bh" d="M1124 0h1v1060h-1z"/><path id="bd" d="M345 0h1v1060h-1z"/><path id="be" d="M994 0h1v1060h-1z"/><path id="bf" d="M735 0h1v1060h-1z"/><path id="bg" d="M475 0h1v1060h-1z"/><path id="ba" d="M0 1060V0h1600v1060z"/><path id="bi" d="M864 0h1v1060h-1z"/><path id="bj" d="M605 0h1v1060h-1z"/><path id="bk" d="M1254 0h1v1060h-1z"/><path id="bl" d="M1384 0h1v1060h-1z"/><linearGradient id="bb" x1="1600" x2="0" y1="992" y2="68" gradientUnits="userSpaceOnUse"><stop offset="0" stop-color="#54b7a1"/><stop offset="1" stop-color="#426384"/></linearGradient></defs><use fill="#536472" xlink:href="#ba"/><use fill="url(#bb)" xlink:href="#ba"/><g fill="#5189a0"><use xlink:href="#bc"/><use xlink:href="#bd"/><use xlink:href="#be"/><use xlink:href="#bf"/><use xlink:href="#bg"/><use xlink:href="#bh"/><use xlink:href="#bi"/><use xlink:href="#bj"/><use xlink:href="#bk"/><use xlink:href="#bl"/></g></svg><svg viewBox="0 0 435 558" id="bgAva" xmlns="http://www.w3.org/2000/svg"><defs><linearGradient id="ca" x1="1385" x2="950" y1="1625" y2="1373" gradientUnits="userSpaceOnUse"><stop offset="0" stop-color="#5acab1"/><stop offset="1" stop-color="#426384"/></linearGradient></defs><path fill="#44444f" d="M0 558V0h435v558z"/><path fill="url(#ca)" d="M950 1778v-558h435v558z" transform="translate(-950 -1220)"/></svg><svg viewBox="0 0 435 704" id="bgEmma" xmlns="http://www.w3.org/2000/svg"><defs><linearGradient id="da" x1="649" x2="214" y1="5762" y2="5510" gradientUnits="userSpaceOnUse"><stop offset="0" stop-color="#426384"/><stop offset="1" stop-color="#5acab1"/></linearGradient></defs><path fill="#44444f" d="M0 704V0h435v704z"/><path fill="url(#da)" d="M214 5988v-704h435v704z" transform="translate(-214 -5284)"/></svg><svg viewBox="0 0 269 409" id="demoBook" xmlns="http://www.w3.org/2000/svg"><defs><path id="ea" d="M664 3387a5 5 0 015-5h258.94a5 5 0 015 5v399a5 5 0 01-5 5H669a5 5 0 01-5-5z"/><path id="ec" d="M913.672 3676.17l105.655-61a5 5 0 115 8.66l-105.655 61a5 5 0 11-5-8.66z"/><path id="ed" d="M913.672 3649.17l105.655-61a5 5 0 115 8.66l-105.655 61a5 5 0 11-5-8.66z"/><path id="ee" d="M664 3791v-409h37.91v409z"/><clipPath id="eb"><use xlink:href="#ea"/></clipPath></defs><use fill="#44444f" xlink:href="#ea" transform="translate(-664 -3382)"/><g clip-path="url(#eb)" transform="translate(-664 -3382)"><use fill="#65e496" xlink:href="#ec"/></g><g clip-path="url(#eb)" transform="translate(-664 -3382)"><use fill="#65e496" xlink:href="#ed"/></g><g clip-path="url(#eb)" transform="translate(-664 -3382)"><use fill="#3d3d47" xlink:href="#ee"/></g></svg><svg viewBox="0 0 137 28" id="logo" xmlns="http://www.w3.org/2000/svg"><path fill="#fefefe" d="M50.2 3.1c2.1 0 3.7.4 4.9 1.3s1.8 2.2 1.8 4c0 .9-.3 1.7-.8 2.4s-1.3 1.2-2.2 1.6c1.2.3 2.1.8 2.8 1.8.7.9 1 2 1 3.2 0 1.8-.6 3.2-1.8 4.2S53.1 23 51.1 23h-9.6v-1.7l2.2-.4V5.2l-2.2-.4V3.1h8.7zm-3.8 8.5h4.5c1 0 1.7-.3 2.3-.9.6-.5.9-1.3.9-2.3 0-1.1-.3-1.9-1-2.4s-1.6-.8-2.9-.8h-3.8v6.4zm0 2.1v7.2H51c1.2 0 2.2-.3 2.9-.9s1-1.5 1-2.6c0-1.2-.3-2.1-.9-2.7-.6-.7-1.4-1-2.6-1h-5zM66.8 3.1v1.7l-2.2.4v11.4c0 1.5.4 2.6 1.3 3.4s2 1.2 3.4 1.2c1.5 0 2.7-.4 3.6-1.2s1.4-1.9 1.4-3.4V5.2L72 4.8V3.1h7.1v1.7l-2.2.4v11.4c0 2.2-.7 3.8-2.1 5s-3.2 1.7-5.5 1.7c-2.2 0-4-.6-5.3-1.7-1.4-1.2-2-2.8-2-5V5.2l-2.2-.4V3.1h7zm14.1 18.2l2.2-.4V5.2l-2.2-.4V3.1h7.2v1.7l-2.2.4v6.7H88L93.5 5 92 4.8V3.1h6.3v1.7l-1.9.3-6.1 7.5 6.6 8.2 1.9.3V23h-6.5v-1.7l1.5-.2-5.6-7.1h-2.3v6.9l2.2.4V23h-7.2v-1.7z"/><path fill="#65e496" d="M100.8 23v-1.7l2.2-.4V5.2l-2.2-.4V3.1h15.3v4.8h-2.3l-.2-2.7h-7.8v6.4h7.6v2.1h-7.6v7.1h8l.2-2.7h2.3V23h-15.5zm17.8 0v-1.7l2.2-.4V5.2l-2.2-.4V3.1h15.3v4.8h-2.3l-.2-2.7h-7.8v6.4h7.6v2.1h-7.6v7.1h8l.2-2.7h2.3V23h-15.5zM28 28L0 0h28v28z"/><path fill="#44444f" d="M28 0L0 28V0h28z"/></svg><svg viewBox="0 0 137 28" id="logo-light" xmlns="http://www.w3.org/2000/svg"><path fill="#fefefe" d="M50.2 3.1c2.1 0 3.7.4 4.9 1.3s1.8 2.2 1.8 4c0 .9-.3 1.7-.8 2.4s-1.3 1.2-2.2 1.6c1.2.3 2.1.8 2.8 1.8.7.9 1 2 1 3.2 0 1.8-.6 3.2-1.8 4.2S53.1 23 51.1 23h-9.6v-1.7l2.2-.4V5.2l-2.2-.4V3.1h8.7zm-3.8 8.5h4.5c1 0 1.7-.3 2.3-.9.6-.5.9-1.3.9-2.3 0-1.1-.3-1.9-1-2.4s-1.6-.8-2.9-.8h-3.8v6.4zm0 2.1v7.2H51c1.2 0 2.2-.3 2.9-.9s1-1.5 1-2.6c0-1.2-.3-2.1-.9-2.7-.6-.7-1.4-1-2.6-1h-5zM66.8 3.1v1.7l-2.2.4v11.4c0 1.5.4 2.6 1.3 3.4s2 1.2 3.4 1.2c1.5 0 2.7-.4 3.6-1.2s1.4-1.9 1.4-3.4V5.2L72 4.8V3.1h7.1v1.7l-2.2.4v11.4c0 2.2-.7 3.8-2.1 5s-3.2 1.7-5.5 1.7c-2.2 0-4-.6-5.3-1.7-1.4-1.2-2-2.8-2-5V5.2l-2.2-.4V3.1h7zm14.1 18.2l2.2-.4V5.2l-2.2-.4V3.1h7.2v1.7l-2.2.4v6.7H88L93.5 5 92 4.8V3.1h6.3v1.7l-1.9.3-6.1 7.5 6.6 8.2 1.9.3V23h-6.5v-1.7l1.5-.2-5.6-7.1h-2.3v6.9l2.2.4V23h-7.2v-1.7z"/><path fill="#65e496" d="M100.8 23v-1.7l2.2-.4V5.2l-2.2-.4V3.1h15.3v4.8h-2.3l-.2-2.7h-7.8v6.4h7.6v2.1h-7.6v7.1h8l.2-2.7h2.3V23h-15.5zm17.8 0v-1.7l2.2-.4V5.2l-2.2-.4V3.1h15.3v4.8h-2.3l-.2-2.7h-7.8v6.4h7.6v2.1h-7.6v7.1h8l.2-2.7h2.3V23h-15.5zM28 28L0 0h28v28z"/><path fill="#80809b" d="M28 0L0 28V0h28z"/></svg><svg transform="rotate(360)" viewBox="0 0 512 512" id="quote" xmlns="http://www.w3.org/2000/svg"><path d="M464 32H336c-26.5 0-48 21.5-48 48v128c0 26.5 21.5 48 48 48h80v64c0 35.3-28.7 64-64 64h-8c-13.3 0-24 10.7-24 24v48c0 13.3 10.7 24 24 24h8c88.4 0 160-71.6 160-160V80c0-26.5-21.5-48-48-48zm-288 0H48C21.5 32 0 53.5 0 80v128c0 26.5 21.5 48 48 48h80v64c0 35.3-28.7 64-64 64h-8c-13.3 0-24 10.7-24 24v48c0 13.3 10.7 24 24 24h8c88.4 0 160-71.6 160-160V80c0-26.5-21.5-48-48-48z" fill="#65e496"/><path fill="rgba(0, 0, 0, 0)" d="M0 0h512v512H0z"/></svg><svg viewBox="0 0 40 32" id="sass" xmlns="http://www.w3.org/2000/svg"><path fill="currentColor" d="M18.865 23.683c-.019.038-.038.067 0 0zm15.571-5.438h-.003a8.173 8.173 0 00-3.67.865l.047-.021c-.369-.744-.75-1.394-.813-1.881-.075-.569-.156-.906-.069-1.581s.481-1.631.475-1.7-.087-.412-.894-.419-1.5.156-1.581.369a7.18 7.18 0 00-.323 1.145l-.008.049c-.144.731-1.612 3.344-2.443 4.706-.275-.531-.506-1-.556-1.375-.075-.569-.156-.906-.069-1.581s.481-1.631.475-1.7-.087-.412-.893-.419-1.5.156-1.581.369-.169.713-.331 1.194-2.118 4.831-2.63 5.962a30.58 30.58 0 01-.65 1.35c-.025.05-.044.081-.056.106.019-.031.031-.063.031-.05-.137.269-.219.419-.219.419v.006c-.106.2-.225.381-.281.381-.038 0-.119-.525.019-1.244.294-1.512.988-3.863.981-3.944-.006-.044.131-.45-.456-.669-.569-.206-.775.137-.825.137s-.087.125-.087.125.631-2.65-1.212-2.65c-1.15 0-2.75 1.262-3.536 2.406-.494.269-1.563.85-2.688 1.469l-1.294.712c-.031-.031-.056-.063-.088-.094-2.237-2.387-6.367-4.075-6.192-7.281.063-1.169.469-4.238 7.942-7.963 6.125-3.05 11.022-2.212 11.865-.35 1.212 2.656-2.618 7.6-8.979 8.313-2.424.269-3.699-.669-4.018-1.019-.331-.369-.381-.387-.506-.319-.206.113-.075.438 0 .631.188.494.969 1.369 2.299 1.806 1.169.381 4.011.594 7.448-.738 3.861-1.488 6.867-5.631 5.986-9.1-.898-3.525-6.742-4.681-12.269-2.719-3.293 1.169-6.854 3.006-9.416 5.4-3.043 2.85-3.53 5.331-3.33 6.369.712 3.681 5.786 6.081 7.816 7.856-.1.056-.194.106-.281.156-1.018.506-4.886 2.531-5.854 4.669-1.094 2.425.181 4.162 1.018 4.4 2.612.725 5.286-.581 6.723-2.725s1.262-4.944.6-6.219c-.006-.019-.019-.031-.025-.05.262-.156.531-.313.8-.469a54.106 54.106 0 011.468-.831c-.25.675-.431 1.488-.525 2.663-.113 1.375.456 3.156 1.194 3.856.325.306.718.313.962.313.863 0 1.25-.712 1.681-1.563.531-1.038 1-2.244 1-2.244s-.587 3.262 1.019 3.262c.587 0 1.174-.756 1.438-1.144v.006s.012-.025.044-.075c.063-.094.094-.15.094-.15v-.019c.238-.406.756-1.337 1.537-2.875 1.012-1.988 1.981-4.469 1.981-4.469.109.631.244 1.174.412 1.702l-.025-.089c.175.594.544 1.244.837 1.875-.238.325-.381.512-.381.512 0 .005.003.009.006.012-.188.25-.4.519-.619.781-.799.95-1.75 2.038-1.875 2.35-.15.369-.113.644.175.856.212.163.587.188.981.156.719-.05 1.225-.225 1.469-.337a5.127 5.127 0 001.277-.673l-.015.01c.781-.575 1.256-1.4 1.212-2.488-.025-.6-.219-1.2-.456-1.762.069-.1.144-.206.212-.313 1.237-1.806 2.193-3.789 2.193-3.789.109.631.244 1.174.412 1.702l-.025-.089c.15.506.443 1.063.712 1.606-1.162.944-1.881 2.038-2.131 2.756-.462 1.331-.1 1.931.581 2.069.306.063.744-.081 1.069-.219a4.961 4.961 0 001.363-.703l-.014.01c.781-.575 1.537-1.381 1.487-2.475-.019-.494-.156-.988-.337-1.462.981-.413 2.256-.637 3.881-.45 3.48.406 4.161 2.581 4.03 3.488s-.862 1.413-1.106 1.563-.319.206-.3.319c.031.163.144.156.35.119.288-.05 1.824-.738 1.893-2.419.1-2.125-1.943-4.462-5.563-4.444zM7.612 27.289C6.463 28.545 4.85 29.02 4.157 28.62c-.744-.433-.45-2.281.968-3.62.862-.813 1.974-1.563 2.712-2.025.169-.1.413-.25.712-.431.05-.031.075-.044.075-.044.056-.038.119-.069.181-.106.518 1.9.019 3.575-1.194 4.894zm8.397-5.713c-.4.981-1.243 3.481-1.756 3.35-.438-.113-.706-2.019-.088-3.894.313-.944.975-2.069 1.369-2.506.631-.706 1.324-.931 1.487-.65.219.369-.762 3.087-1.012 3.7zm6.938 3.313c-.169.087-.325.144-.4.1-.056-.031.069-.15.069-.15s.869-.931 1.212-1.356c.2-.25.431-.544.681-.869 0 .031.006.063.006.1-.008 1.119-1.082 1.875-1.57 2.175zm5.349-1.219c-.125-.087-.106-.381.313-1.294.163-.356.537-.956 1.188-1.531.07.201.113.432.119.672v.003c-.006 1.406-1.012 1.931-1.618 2.15z"/></svg><svg viewBox="0 0 24 32" id="stack-overflow" xmlns="http://www.w3.org/2000/svg"><path fill="currentColor" d="M18.169 19.438L5.938 16.857l-.513 2.456 12.231 2.563zM21.356 14l-9.594-8.019-1.594 1.925 9.594 8.019zm-1.95 2.481L8.075 11.187l-1.044 2.281 11.325 5.281zM16.375 2l-2 1.5 7.456 10.019 2-1.5zm1.281 20.5h-12.5v2.481h12.5zm2.481 5H2.668V20h-2.5v10h22.469V20h-2.5z"/></svg><svg viewBox="0 0 445 639" id="theBook" xmlns="http://www.w3.org/2000/svg"><defs><path id="ka" d="M215 264a5 5 0 015-5h434.97a5 5 0 015 5v629a5 5 0 01-5 5H220a5 5 0 01-5-5z"/><path id="kc" d="M591.051 795.046l165.419-165.39c12.008-12.007 31.478-12.007 43.486 0 12.008 12.005 12.008 31.472 0 43.478L634.537 838.526c-12.008 12.005-31.478 12.005-43.486 0-12.008-12.007-12.008-31.473 0-43.48z"/><path id="kd" d="M510.258 749.23l165.419-165.39c12.008-12.006 31.478-12.006 43.486 0 12.009 12.007 12.009 31.473 0 43.48L553.745 792.71c-12.009 12.007-31.478 12.007-43.487 0-12.008-12.006-12.008-31.473 0-43.48z"/><path id="ke" d="M215 898V259h62.72v639z"/><clipPath id="kb"><use xlink:href="#ka"/></clipPath></defs><use fill="#44444f" xlink:href="#ka" transform="translate(-215 -259)"/><g clip-path="url(#kb)" transform="translate(-215 -259)"><use fill="#65e496" xlink:href="#kc"/></g><g clip-path="url(#kb)" transform="translate(-215 -259)"><use fill="#65e496" xlink:href="#kd"/></g><g clip-path="url(#kb)" transform="translate(-215 -259)"><use fill="#3d3d47" xlink:href="#ke"/></g></svg></svg>